# Blender v2.74 (sub 0) OBJ File: ''
# www.blender.org
mtllib hill.mtl
o Box
v 0.500000 0.005000 0.500000
v 0.500000 0.170664 0.400000
v 0.500000 0.170664 0.300000
v 0.500000 0.170664 0.200000
v 0.500000 0.170664 0.100000
v 0.500000 0.170664 0.000000
v 0.500000 0.005000 -0.100000
v 0.500000 0.005000 -0.200000
v 0.500000 0.005000 -0.300000
v 0.500000 0.005000 -0.400000
v 0.500000 0.005000 -0.500000
v 0.500000 -0.005000 0.500000
v 0.500000 0.160664 0.400000
v 0.500000 0.160664 0.300000
v 0.500000 0.160664 0.200000
v 0.500000 0.160664 0.100000
v 0.500000 0.160664 0.000000
v 0.500000 -0.005000 -0.100000
v 0.500000 -0.005000 -0.200000
v 0.500000 -0.005000 -0.300000
v 0.500000 -0.005000 -0.400000
v 0.500000 -0.005000 -0.500000
v -0.500000 0.147804 -0.500000
v -0.500000 0.147804 -0.400000
v -0.500000 0.147804 -0.300000
v -0.500000 0.147804 -0.200000
v -0.500000 0.147804 -0.100000
v -0.500000 0.147804 0.000000
v -0.500000 0.147804 0.100000
v -0.500000 0.147804 0.200000
v -0.500000 0.147804 0.300000
v -0.500000 0.147804 0.400000
v -0.500000 0.005000 0.500000
v -0.500000 0.137804 -0.500000
v -0.500000 0.137804 -0.400000
v -0.500000 0.137804 -0.300000
v -0.500000 0.137804 -0.200000
v -0.500000 0.137804 -0.100000
v -0.500000 0.137804 0.000000
v -0.500000 0.137804 0.100000
v -0.500000 0.137804 0.200000
v -0.500000 0.137804 0.300000
v -0.500000 0.137804 0.400000
v -0.500000 -0.005000 0.500000
v -0.400000 0.230663 -0.500000
v -0.300000 0.230663 -0.500000
v -0.200000 0.230663 -0.500000
v -0.100000 0.230663 -0.500000
v 0.000000 0.147804 -0.500000
v 0.100000 0.147804 -0.500000
v 0.200000 0.147804 -0.500000
v 0.300000 0.005000 -0.500000
v 0.400000 0.005000 -0.500000
v -0.400000 0.230663 -0.400000
v -0.300000 0.230663 -0.400000
v -0.200000 0.230663 -0.400000
v -0.100000 0.230663 -0.400000
v 0.000000 0.147804 -0.400000
v 0.100000 0.147804 -0.400000
v 0.200000 0.147804 -0.400000
v 0.300000 0.005000 -0.400000
v 0.400000 0.005000 -0.400000
v -0.400000 0.230663 -0.300000
v -0.300000 0.230663 -0.300000
v -0.200000 0.230663 -0.300000
v -0.100000 0.230663 -0.300000
v 0.000000 0.147804 -0.300000
v 0.100000 0.147804 -0.300000
v 0.200000 0.147804 -0.300000
v 0.300000 0.005000 -0.300000
v 0.400000 0.005000 -0.300000
v -0.400000 0.230663 -0.200000
v -0.300000 0.230663 -0.200000
v -0.200000 0.230663 -0.200000
v -0.100000 0.230663 -0.200000
v 0.000000 0.147804 -0.200000
v 0.100000 0.147804 -0.200000
v 0.200000 0.147804 -0.200000
v 0.300000 0.005000 -0.200000
v 0.400000 0.005000 -0.200000
v -0.400000 0.230663 -0.100000
v -0.300000 0.230663 -0.100000
v -0.200000 0.230663 -0.100000
v -0.100000 0.230663 -0.100000
v 0.000000 0.147804 -0.100000
v 0.100000 0.147804 -0.100000
v 0.200000 0.147804 -0.100000
v 0.300000 0.005000 -0.100000
v 0.400000 0.005000 -0.100000
v -0.400000 0.230663 0.000000
v -0.300000 0.230663 0.000000
v -0.200000 0.230663 0.000000
v -0.100000 0.230663 0.000000
v 0.000000 0.147804 0.000000
v 0.100000 0.147804 0.000000
v 0.200000 0.005000 0.000000
v 0.300000 0.170664 0.000000
v 0.400000 0.170664 0.000000
v -0.400000 0.230663 0.100000
v -0.300000 0.230663 0.100000
v -0.200000 0.230663 0.100000
v -0.100000 0.230663 0.100000
v 0.000000 0.147804 0.100000
v 0.100000 0.147804 0.100000
v 0.200000 0.170664 0.100000
v 0.300000 0.170664 0.100000
v 0.400000 0.170664 0.100000
v -0.400000 0.147804 0.200000
v -0.300000 0.147804 0.200000
v -0.200000 0.230663 0.200000
v -0.100000 0.474442 0.200000
v 0.000000 0.391583 0.200000
v 0.100000 0.147804 0.200000
v 0.200000 0.170664 0.200000
v 0.300000 0.170664 0.200000
v 0.400000 0.170664 0.200000
v -0.400000 0.147804 0.300000
v -0.300000 0.147804 0.300000
v -0.200000 0.230663 0.300000
v -0.100000 0.474442 0.300000
v 0.000000 0.391583 0.300000
v 0.100000 0.147804 0.300000
v 0.200000 0.170664 0.300000
v 0.300000 0.170664 0.300000
v 0.400000 0.170664 0.300000
v -0.400000 0.147804 0.400000
v -0.300000 0.147804 0.400000
v -0.200000 0.147804 0.400000
v -0.100000 0.147804 0.400000
v 0.000000 0.147804 0.400000
v 0.100000 0.147804 0.400000
v 0.200000 0.170664 0.400000
v 0.300000 0.170664 0.400000
v 0.400000 0.170664 0.400000
v -0.400000 0.005000 0.500000
v -0.300000 0.005000 0.500000
v -0.200000 0.005000 0.500000
v -0.100000 0.005000 0.500000
v 0.000000 0.005000 0.500000
v 0.100000 0.005000 0.500000
v 0.200000 0.005000 0.500000
v 0.300000 0.005000 0.500000
v 0.400000 0.005000 0.500000
v -0.400000 -0.005000 0.500000
v -0.300000 -0.005000 0.500000
v -0.200000 -0.005000 0.500000
v -0.100000 -0.005000 0.500000
v 0.000000 -0.005000 0.500000
v 0.100000 -0.005000 0.500000
v 0.200000 -0.005000 0.500000
v 0.300000 -0.005000 0.500000
v 0.400000 -0.005000 0.500000
v -0.400000 0.137804 0.400000
v -0.300000 0.137804 0.400000
v -0.200000 0.137804 0.400000
v -0.100000 0.137804 0.400000
v 0.000000 0.137804 0.400000
v 0.100000 0.137804 0.400000
v 0.200000 0.160664 0.400000
v 0.300000 0.160664 0.400000
v 0.400000 0.160664 0.400000
v -0.400000 0.137804 0.300000
v -0.300000 0.137804 0.300000
v -0.200000 0.137804 0.300000
v -0.100000 0.137804 0.300000
v 0.000000 0.137804 0.300000
v 0.100000 0.137804 0.300000
v 0.200000 0.160664 0.300000
v 0.300000 0.160664 0.300000
v 0.400000 0.160664 0.300000
v -0.400000 0.137804 0.200000
v -0.300000 0.137804 0.200000
v -0.200000 0.137804 0.200000
v -0.100000 0.137804 0.200000
v 0.000000 0.137804 0.200000
v 0.100000 0.137804 0.200000
v 0.200000 0.160664 0.200000
v 0.300000 0.160664 0.200000
v 0.400000 0.160664 0.200000
v -0.400000 0.137804 0.100000
v -0.300000 0.220663 0.100000
v -0.200000 0.220663 0.100000
v -0.100000 0.220663 0.100000
v 0.000000 0.137804 0.100000
v 0.100000 0.137804 0.100000
v 0.200000 0.160664 0.100000
v 0.300000 0.160664 0.100000
v 0.400000 0.160664 0.100000
v -0.400000 0.220663 0.000000
v -0.300000 0.220663 0.000000
v -0.200000 0.220663 0.000000
v -0.100000 0.220663 0.000000
v 0.000000 0.137804 0.000000
v 0.100000 0.137804 0.000000
v 0.200000 -0.005000 0.000000
v 0.300000 0.160664 0.000000
v 0.400000 0.160664 0.000000
v -0.400000 0.220663 -0.100000
v -0.300000 0.220663 -0.100000
v -0.200000 0.220663 -0.100000
v -0.100000 0.220663 -0.100000
v 0.000000 0.137804 -0.100000
v 0.100000 0.137804 -0.100000
v 0.200000 0.137804 -0.100000
v 0.300000 -0.005000 -0.100000
v 0.400000 -0.005000 -0.100000
v -0.400000 0.220663 -0.200000
v -0.300000 0.220663 -0.200000
v -0.200000 0.220663 -0.200000
v -0.100000 0.220663 -0.200000
v 0.000000 0.137804 -0.200000
v 0.100000 0.137804 -0.200000
v 0.200000 0.137804 -0.200000
v 0.300000 -0.005000 -0.200000
v 0.400000 -0.005000 -0.200000
v -0.400000 0.220663 -0.300000
v -0.300000 0.220663 -0.300000
v -0.200000 0.220663 -0.300000
v -0.100000 0.220663 -0.300000
v 0.000000 0.137804 -0.300000
v 0.100000 0.137804 -0.300000
v 0.200000 0.137804 -0.300000
v 0.300000 -0.005000 -0.300000
v 0.400000 -0.005000 -0.300000
v -0.400000 0.220663 -0.400000
v -0.300000 0.220663 -0.400000
v -0.200000 0.220663 -0.400000
v -0.100000 0.220663 -0.400000
v 0.000000 0.137804 -0.400000
v 0.100000 0.137804 -0.400000
v 0.200000 0.137804 -0.400000
v 0.300000 -0.005000 -0.400000
v 0.400000 -0.005000 -0.400000
v -0.400000 0.220663 -0.500000
v -0.300000 0.220663 -0.500000
v -0.200000 0.220663 -0.500000
v -0.100000 0.220663 -0.500000
v 0.000000 0.137804 -0.500000
v 0.100000 0.137804 -0.500000
v 0.200000 0.137804 -0.500000
v 0.300000 -0.005000 -0.500000
v 0.400000 -0.005000 -0.500000
vt 0.000000 1.000000
vt 0.000000 0.000000
vt 0.100000 0.000000
vt 0.100000 1.000000
vt 0.200000 0.000000
vt 0.200000 1.000000
vt 0.300000 0.000000
vt 0.300000 1.000000
vt 0.400000 0.000000
vt 0.400000 1.000000
vt 0.500000 0.000000
vt 0.500000 1.000000
vt 0.600000 0.000000
vt 0.600000 1.000000
vt 0.700000 0.000000
vt 0.700000 1.000000
vt 0.800000 0.000000
vt 0.800000 1.000000
vt 0.900000 0.000000
vt 0.900000 1.000000
vt 1.000000 0.000000
vt 1.000000 1.000000
vt 0.000000 0.900000
vt 0.100000 0.900000
vt 0.200000 0.900000
vt 0.300000 0.900000
vt 0.400000 0.900000
vt 0.500000 0.900000
vt 0.600000 0.900000
vt 0.700000 0.900000
vt 0.800000 0.900000
vt 0.900000 0.900000
vt 1.000000 0.900000
vt 0.000000 0.800000
vt 0.100000 0.800000
vt 0.200000 0.800000
vt 0.300000 0.800000
vt 0.400000 0.800000
vt 0.500000 0.800000
vt 0.600000 0.800000
vt 0.700000 0.800000
vt 0.800000 0.800000
vt 0.900000 0.800000
vt 1.000000 0.800000
vt 0.000000 0.700000
vt 0.100000 0.700000
vt 0.200000 0.700000
vt 0.300000 0.700000
vt 0.400000 0.700000
vt 0.500000 0.700000
vt 0.600000 0.700000
vt 0.700000 0.700000
vt 0.800000 0.700000
vt 0.900000 0.700000
vt 1.000000 0.700000
vt 0.000000 0.600000
vt 0.100000 0.600000
vt 0.200000 0.600000
vt 0.300000 0.600000
vt 0.400000 0.600000
vt 0.500000 0.600000
vt 0.600000 0.600000
vt 0.700000 0.600000
vt 0.800000 0.600000
vt 0.900000 0.600000
vt 1.000000 0.600000
vt 0.000000 0.500000
vt 0.100000 0.500000
vt 0.200000 0.500000
vt 0.300000 0.500000
vt 0.400000 0.500000
vt 0.500000 0.500000
vt 0.600000 0.500000
vt 0.700000 0.500000
vt 0.800000 0.500000
vt 0.900000 0.500000
vt 1.000000 0.500000
vt 0.000000 0.400000
vt 0.100000 0.400000
vt 0.200000 0.400000
vt 0.300000 0.400000
vt 0.400000 0.400000
vt 0.500000 0.400000
vt 0.600000 0.400000
vt 0.700000 0.400000
vt 0.800000 0.400000
vt 0.900000 0.400000
vt 1.000000 0.400000
vt 0.000000 0.300000
vt 0.100000 0.300000
vt 0.200000 0.300000
vt 0.300000 0.300000
vt 0.400000 0.300000
vt 0.500000 0.300000
vt 0.600000 0.300000
vt 0.700000 0.300000
vt 0.800000 0.300000
vt 0.900000 0.300000
vt 1.000000 0.300000
vt 0.000000 0.200000
vt 0.100000 0.200000
vt 0.200000 0.200000
vt 0.300000 0.200000
vt 0.400000 0.200000
vt 0.500000 0.200000
vt 0.600000 0.200000
vt 0.700000 0.200000
vt 0.800000 0.200000
vt 0.900000 0.200000
vt 1.000000 0.200000
vt 0.000000 0.100000
vt 0.100000 0.100000
vt 0.200000 0.100000
vt 0.300000 0.100000
vt 0.400000 0.100000
vt 0.500000 0.100000
vt 0.600000 0.100000
vt 0.700000 0.100000
vt 0.800000 0.100000
vt 0.900000 0.100000
vt 1.000000 0.100000
vn 1.000000 0.000000 0.000000
vn -1.000000 0.000000 0.000000
vn 0.762300 0.647300 -0.000000
vn 0.340300 0.940300 0.000000
vn 0.320000 0.947400 -0.000000
vn 0.000000 1.000000 0.000000
vn -0.340300 0.940300 0.000000
vn -0.320000 0.947400 0.000000
vn -0.545000 0.838400 0.000000
vn -0.603300 0.797500 0.000000
vn -0.239400 0.970900 0.000000
vn -0.224700 0.974400 0.000000
vn -0.391300 0.920300 0.000000
vn -0.436700 0.899600 0.000000
vn -0.096300 0.991400 -0.088700
vn -0.529200 0.843900 -0.087600
vn -0.569500 0.773800 0.277400
vn -0.000200 0.936700 0.350000
vn -0.000300 0.920300 0.391300
vn -0.258500 0.965900 0.014800
vn -0.051000 0.697500 -0.714800
vn -0.005700 0.873600 0.486600
vn -0.000200 0.977000 0.213300
vn -0.000300 0.979800 0.200200
vn 0.820300 0.571800 0.005000
vn 0.405800 0.896200 -0.179200
vn 0.210800 0.927100 -0.310100
vn 0.324300 0.944100 -0.059300
vn -0.573500 0.726700 0.378300
vn -0.604600 0.795200 0.045100
vn -0.075800 0.817300 0.571200
vn 0.014500 0.822800 0.568100
vn 0.084900 0.993300 0.077900
vn 0.379900 0.893000 -0.241100
vn -0.024100 0.828500 -0.559500
vn 0.024800 0.599700 -0.799900
vn 0.606200 0.795200 -0.009200
vn -0.079500 0.994600 0.066400
vn -0.355000 0.687900 0.633000
vn 0.978200 0.087000 0.188500
vn 0.500200 0.865900 0.000000
vn 0.523600 0.836800 -0.159900
vn 0.600400 0.798800 0.038900
vn -0.202000 0.977900 -0.054300
vn -0.742400 0.666700 -0.066100
vn 0.978200 0.087000 -0.188500
vn -0.000000 0.974400 -0.224700
vn 0.000000 0.970900 -0.239400
vn 0.454000 0.809700 -0.371700
vn -0.020800 0.717400 -0.696400
vn 0.011100 0.912400 -0.409100
vn -0.020500 0.881800 -0.471100
vn 0.996300 0.080000 -0.030100
vn 0.542200 0.840300 -0.005200
vn 0.000000 0.977000 -0.213300
vn 0.000000 0.979800 -0.200200
vn -0.000000 0.823100 -0.567900
vn 0.000500 0.829700 -0.558200
vn -0.000200 0.853800 -0.520700
vn -0.000000 0.859200 -0.511600
vn 0.000000 -0.823100 0.567900
vn -0.000000 -0.899600 0.436700
vn 0.000000 -0.920300 0.391300
vn -0.013700 -0.741600 0.670700
vn 0.000400 -0.836200 0.548500
vn -0.023800 -0.736800 0.675700
vn -0.000700 -0.848300 0.529600
vn 0.000000 -0.936700 0.350000
vn 0.000000 -0.859200 0.511600
vn 0.000000 -1.000000 0.000000
vn -0.500200 -0.865900 -0.000000
vn -0.758000 -0.652300 -0.000000
vn -0.138300 -0.982000 0.128500
vn -0.210800 -0.927100 0.310100
vn 0.000000 -0.940300 0.340300
vn 0.210800 -0.927100 0.310100
vn 0.138300 -0.982000 0.128500
vn -0.455600 -0.837900 0.300600
vn -0.544300 -0.819500 0.179700
vn -0.014000 -0.601000 0.799100
vn 0.000000 -0.838400 0.545000
vn 0.024800 -0.599700 0.799900
vn 0.355100 -0.929000 0.104700
vn -0.221600 -0.962600 -0.155600
vn -0.900100 -0.420600 -0.113400
vn -0.084900 -0.993300 -0.077900
vn -0.867900 -0.496600 0.012000
vn -0.089500 -0.489600 0.867300
vn 0.545000 -0.838400 -0.000000
vn 0.340300 -0.940300 -0.000000
vn 0.368900 -0.929200 -0.022700
vn 0.151400 0.516500 -0.842800
vn -0.438800 -0.790700 -0.426900
vn -0.000200 -0.936700 -0.350000
vn -0.000300 -0.920300 -0.391300
vn -0.762300 -0.647300 0.000000
vn -0.545000 -0.838400 -0.000000
vn 0.096300 -0.991400 0.088700
vn 0.180500 -0.620600 0.763100
vn -0.004500 -0.868600 -0.495500
vn -0.000200 -0.977000 -0.213300
vn -0.000300 -0.979800 -0.200200
vn 0.391300 -0.920300 -0.000000
vn 0.239400 -0.970900 -0.000000
vn -0.603300 -0.797500 -0.000000
vn 0.603300 -0.797500 0.000000
vn 0.320000 -0.947400 0.000000
vn 0.436700 -0.899600 0.000000
vn 0.224700 -0.974400 0.000000
vn 0.000000 0.000000 1.000000
vn 0.000000 0.000000 -1.000000
usemtl b0b0b0
s 1
f 1/1/1 12/2/1 13/3/1 2/4/1
f 2/4/1 13/3/1 14/5/1 3/6/1
f 3/6/1 14/5/1 15/7/1 4/8/1
f 4/8/1 15/7/1 16/9/1 5/10/1
f 5/10/1 16/9/1 17/11/1 6/12/1
f 6/12/1 17/11/1 18/13/1 7/14/1
f 7/14/1 18/13/1 19/15/1 8/16/1
f 8/16/1 19/15/1 20/17/1 9/18/1
f 9/18/1 20/17/1 21/19/1 10/20/1
f 10/20/1 21/19/1 22/21/1 11/22/1
f 23/1/2 34/2/2 35/3/2 24/4/2
f 24/4/2 35/3/2 36/5/2 25/6/2
f 25/6/2 36/5/2 37/7/2 26/8/2
f 26/8/2 37/7/2 38/9/2 27/10/2
f 27/10/2 38/9/2 39/11/2 28/12/2
f 28/12/2 39/11/2 40/13/2 29/14/2
f 29/14/2 40/13/2 41/15/2 30/16/2
f 30/16/2 41/15/2 42/17/2 31/18/2
f 31/18/2 42/17/2 43/19/2 32/20/2
f 32/20/2 43/19/2 44/21/2 33/22/2
f 23/1/3 24/23/3 54/24/4 45/4/5
f 45/4/5 54/24/4 55/25/6 46/6/6
f 46/6/6 55/25/6 56/26/6 47/8/6
f 47/8/6 56/26/6 57/27/7 48/10/8
f 48/10/8 57/27/7 58/28/9 49/12/10
f 49/12/10 58/28/9 59/29/6 50/14/6
f 50/14/6 59/29/6 60/30/11 51/16/12
f 51/16/12 60/30/11 61/31/13 52/18/14
f 52/18/14 61/31/13 62/32/6 53/20/6
f 53/20/6 62/32/6 10/33/6 11/22/6
f 24/23/3 25/34/3 63/35/4 54/24/4
f 54/24/4 63/35/4 64/36/6 55/25/6
f 55/25/6 64/36/6 65/37/6 56/26/6
f 56/26/6 65/37/6 66/38/7 57/27/7
f 57/27/7 66/38/7 67/39/9 58/28/9
f 58/28/9 67/39/9 68/40/6 59/29/6
f 59/29/6 68/40/6 69/41/11 60/30/11
f 60/30/11 69/41/11 70/42/13 61/31/13
f 61/31/13 70/42/13 71/43/6 62/32/6
f 62/32/6 71/43/6 9/44/6 10/33/6
f 25/34/3 26/45/3 72/46/4 63/35/4
f 63/35/4 72/46/4 73/47/6 64/36/6
f 64/36/6 73/47/6 74/48/6 65/37/6
f 65/37/6 74/48/6 75/49/7 66/38/7
f 66/38/7 75/49/7 76/50/9 67/39/9
f 67/39/9 76/50/9 77/51/6 68/40/6
f 68/40/6 77/51/6 78/52/11 69/41/11
f 69/41/11 78/52/11 79/53/13 70/42/13
f 70/42/13 79/53/13 80/54/6 71/43/6
f 71/43/6 80/54/6 8/55/6 9/44/6
f 26/45/3 27/56/3 81/57/4 72/46/4
f 72/46/4 81/57/4 82/58/6 73/47/6
f 73/47/6 82/58/6 83/59/6 74/48/6
f 74/48/6 83/59/6 84/60/7 75/49/7
f 75/49/7 84/60/7 85/61/9 76/50/9
f 76/50/9 85/61/9 86/62/15 77/51/6
f 77/51/6 86/62/15 87/63/16 78/52/11
f 78/52/11 87/63/16 88/64/17 79/53/13
f 79/53/13 88/64/17 89/65/18 80/54/6
f 80/54/6 89/65/18 7/66/19 8/55/6
f 27/56/3 28/67/3 90/68/4 81/57/4
f 81/57/4 90/68/4 91/69/6 82/58/6
f 82/58/6 91/69/6 92/70/6 83/59/6
f 83/59/6 92/70/6 93/71/7 84/60/7
f 84/60/7 93/71/7 94/72/9 85/61/9
f 85/61/9 94/72/9 95/73/20 86/62/15
f 86/62/15 95/73/20 96/74/21 87/63/16
f 87/63/16 96/74/21 97/75/22 88/64/17
f 88/64/17 97/75/22 98/76/23 89/65/18
f 89/65/18 98/76/23 6/77/24 7/66/19
f 28/67/3 29/78/25 99/79/26 90/68/4
f 90/68/4 99/79/26 100/80/27 91/69/6
f 91/69/6 100/80/27 101/81/28 92/70/6
f 92/70/6 101/81/28 102/82/29 93/71/7
f 93/71/7 102/82/29 103/83/30 94/72/9
f 94/72/9 103/83/30 104/84/31 95/73/20
f 95/73/20 104/84/31 105/85/32 96/74/21
f 96/74/21 105/85/32 106/86/33 97/75/22
f 97/75/22 106/86/33 107/87/6 98/76/23
f 98/76/23 107/87/6 5/88/6 6/77/24
f 29/78/25 30/89/34 108/90/35 99/79/26
f 99/79/26 108/90/35 109/91/36 100/80/27
f 100/80/27 109/91/36 110/92/37 101/81/28
f 101/81/28 110/92/37 111/93/38 102/82/29
f 102/82/29 111/93/38 112/94/39 103/83/30
f 103/83/30 112/94/39 113/95/40 104/84/31
f 104/84/31 113/95/40 114/96/41 105/85/32
f 105/85/32 114/96/41 115/97/6 106/86/33
f 106/86/33 115/97/6 116/98/6 107/87/6
f 107/87/6 116/98/6 4/99/6 5/88/6
f 30/89/34 31/100/6 117/101/6 108/90/35
f 108/90/35 117/101/6 118/102/42 109/91/36
f 109/91/36 118/102/42 119/103/43 110/92/37
f 110/92/37 119/103/43 120/104/44 111/93/38
f 111/93/38 120/104/44 121/105/45 112/94/39
f 112/94/39 121/105/45 122/106/46 113/95/40
f 113/95/40 122/106/46 123/107/41 114/96/41
f 114/96/41 123/107/41 124/108/6 115/97/6
f 115/97/6 124/108/6 125/109/6 116/98/6
f 116/98/6 125/109/6 3/110/6 4/99/6
f 31/100/6 32/111/47 126/112/48 117/101/6
f 117/101/6 126/112/48 127/113/49 118/102/42
f 118/102/42 127/113/49 128/114/50 119/103/43
f 119/103/43 128/114/50 129/115/51 120/104/44
f 120/104/44 129/115/51 130/116/52 121/105/45
f 121/105/45 130/116/52 131/117/53 122/106/46
f 122/106/46 131/117/53 132/118/54 123/107/41
f 123/107/41 132/118/54 133/119/55 124/108/6
f 124/108/6 133/119/55 134/120/55 125/109/6
f 125/109/6 134/120/55 2/121/56 3/110/6
f 32/111/47 33/2/57 135/3/57 126/112/48
f 126/112/48 135/3/57 136/5/57 127/113/49
f 127/113/49 136/5/57 137/7/57 128/114/50
f 128/114/50 137/7/57 138/9/57 129/115/51
f 129/115/51 138/9/57 139/11/57 130/116/52
f 130/116/52 139/11/57 140/13/58 131/117/53
f 131/117/53 140/13/58 141/15/59 132/118/54
f 132/118/54 141/15/59 142/17/60 133/119/55
f 133/119/55 142/17/60 143/19/60 134/120/55
f 134/120/55 143/19/60 1/21/60 2/121/56
f 44/1/61 43/23/62 153/24/63 144/4/61
f 144/4/61 153/24/63 154/25/63 145/6/61
f 145/6/61 154/25/63 155/26/63 146/8/61
f 146/8/61 155/26/63 156/27/63 147/10/61
f 147/10/61 156/27/63 157/28/63 148/12/61
f 148/12/61 157/28/63 158/29/64 149/14/65
f 149/14/65 158/29/64 159/30/66 150/16/67
f 150/16/67 159/30/66 160/31/68 151/18/69
f 151/18/69 160/31/68 161/32/68 152/20/69
f 152/20/69 161/32/68 13/33/63 12/22/69
f 43/23/62 42/34/70 162/35/70 153/24/63
f 153/24/63 162/35/70 163/36/70 154/25/63
f 154/25/63 163/36/70 164/37/70 155/26/63
f 155/26/63 164/37/70 165/38/70 156/27/63
f 156/27/63 165/38/70 166/39/70 157/28/63
f 157/28/63 166/39/70 167/40/71 158/29/64
f 158/29/64 167/40/71 168/41/72 159/30/66
f 159/30/66 168/41/72 169/42/70 160/31/68
f 160/31/68 169/42/70 170/43/70 161/32/68
f 161/32/68 170/43/70 14/44/70 13/33/63
f 42/34/70 41/45/70 171/46/73 162/35/70
f 162/35/70 171/46/73 172/47/74 163/36/70
f 163/36/70 172/47/74 173/48/75 164/37/70
f 164/37/70 173/48/75 174/49/76 165/38/70
f 165/38/70 174/49/76 175/50/77 166/39/70
f 166/39/70 175/50/77 176/51/71 167/40/71
f 167/40/71 176/51/71 177/52/72 168/41/72
f 168/41/72 177/52/72 178/53/70 169/42/70
f 169/42/70 178/53/70 179/54/70 170/43/70
f 170/43/70 179/54/70 15/55/70 14/44/70
f 41/45/70 40/56/78 180/57/79 171/46/73
f 171/46/73 180/57/79 181/58/80 172/47/74
f 172/47/74 181/58/80 182/59/81 173/48/75
f 173/48/75 182/59/81 183/60/82 174/49/76
f 174/49/76 183/60/82 184/61/83 175/50/77
f 175/50/77 184/61/83 185/62/84 176/51/71
f 176/51/71 185/62/84 186/63/85 177/52/72
f 177/52/72 186/63/85 187/64/86 178/53/70
f 178/53/70 187/64/86 188/65/70 179/54/70
f 179/54/70 188/65/70 16/66/70 15/55/70
f 40/56/78 39/67/87 189/68/88 180/57/79
f 180/57/79 189/68/88 190/69/73 181/58/80
f 181/58/80 190/69/73 191/70/70 182/59/81
f 182/59/81 191/70/70 192/71/89 183/60/82
f 183/60/82 192/71/89 193/72/90 184/61/83
f 184/61/83 193/72/90 194/73/91 185/62/84
f 185/62/84 194/73/91 195/74/92 186/63/85
f 186/63/85 195/74/92 196/75/93 187/64/86
f 187/64/86 196/75/93 197/76/94 188/65/70
f 188/65/70 197/76/94 17/77/95 16/66/70
f 39/67/87 38/78/96 198/79/97 189/68/88
f 189/68/88 198/79/97 199/80/70 190/69/73
f 190/69/73 199/80/70 200/81/70 191/70/70
f 191/70/70 200/81/70 201/82/89 192/71/89
f 192/71/89 201/82/89 202/83/90 193/72/90
f 193/72/90 202/83/90 203/84/98 194/73/91
f 194/73/91 203/84/98 204/85/99 195/74/92
f 195/74/92 204/85/99 205/86/100 196/75/93
f 196/75/93 205/86/100 206/87/101 197/76/94
f 197/76/94 206/87/101 18/88/102 17/77/95
f 38/78/96 37/89/96 207/90/97 198/79/97
f 198/79/97 207/90/97 208/91/70 199/80/70
f 199/80/70 208/91/70 209/92/70 200/81/70
f 200/81/70 209/92/70 210/93/89 201/82/89
f 201/82/89 210/93/89 211/94/90 202/83/90
f 202/83/90 211/94/90 212/95/70 203/84/98
f 203/84/98 212/95/70 213/96/103 204/85/99
f 204/85/99 213/96/103 214/97/104 205/86/100
f 205/86/100 214/97/104 215/98/70 206/87/101
f 206/87/101 215/98/70 19/99/70 18/88/102
f 37/89/96 36/100/96 216/101/97 207/90/97
f 207/90/97 216/101/97 217/102/70 208/91/70
f 208/91/70 217/102/70 218/103/70 209/92/70
f 209/92/70 218/103/70 219/104/89 210/93/89
f 210/93/89 219/104/89 220/105/90 211/94/90
f 211/94/90 220/105/90 221/106/70 212/95/70
f 212/95/70 221/106/70 222/107/103 213/96/103
f 213/96/103 222/107/103 223/108/104 214/97/104
f 214/97/104 223/108/104 224/109/70 215/98/70
f 215/98/70 224/109/70 20/110/70 19/99/70
f 36/100/96 35/111/96 225/112/97 216/101/97
f 216/101/97 225/112/97 226/113/70 217/102/70
f 217/102/70 226/113/70 227/114/70 218/103/70
f 218/103/70 227/114/70 228/115/89 219/104/89
f 219/104/89 228/115/89 229/116/90 220/105/90
f 220/105/90 229/116/90 230/117/70 221/106/70
f 221/106/70 230/117/70 231/118/103 222/107/103
f 222/107/103 231/118/103 232/119/104 223/108/104
f 223/108/104 232/119/104 233/120/70 224/109/70
f 224/109/70 233/120/70 21/121/70 20/110/70
f 35/111/96 34/2/96 234/3/105 225/112/97
f 225/112/97 234/3/105 235/5/70 226/113/70
f 226/113/70 235/5/70 236/7/70 227/114/70
f 227/114/70 236/7/70 237/9/106 228/115/89
f 228/115/89 237/9/106 238/11/107 229/116/90
f 229/116/90 238/11/107 239/13/70 230/117/70
f 230/117/70 239/13/70 240/15/108 231/118/103
f 231/118/103 240/15/108 241/17/109 232/119/104
f 232/119/104 241/17/109 242/19/70 233/120/70
f 233/120/70 242/19/70 22/21/70 21/121/70
f 33/1/110 44/2/110 144/3/110 135/4/110
f 135/4/110 144/3/110 145/5/110 136/6/110
f 136/6/110 145/5/110 146/7/110 137/8/110
f 137/8/110 146/7/110 147/9/110 138/10/110
f 138/10/110 147/9/110 148/11/110 139/12/110
f 139/12/110 148/11/110 149/13/110 140/14/110
f 140/14/110 149/13/110 150/15/110 141/16/110
f 141/16/110 150/15/110 151/17/110 142/18/110
f 142/18/110 151/17/110 152/19/110 143/20/110
f 143/20/110 152/19/110 12/21/110 1/22/110
f 11/1/111 22/2/111 242/3/111 53/4/111
f 53/4/111 242/3/111 241/5/111 52/6/111
f 52/6/111 241/5/111 240/7/111 51/8/111
f 51/8/111 240/7/111 239/9/111 50/10/111
f 50/10/111 239/9/111 238/11/111 49/12/111
f 49/12/111 238/11/111 237/13/111 48/14/111
f 48/14/111 237/13/111 236/15/111 47/16/111
f 47/16/111 236/15/111 235/17/111 46/18/111
f 46/18/111 235/17/111 234/19/111 45/20/111
f 45/20/111 234/19/111 34/21/111 23/22/111
